<svg aria-hidden="true" style="position:absolute;width:0;height:0" xmlns="http://www.w3.org/2000/svg" overflow="hidden"><defs><symbol id="icon-figma" viewBox="0 0 22 32"><path fill="var(--color1, #0acf83)" d="M5.654 31.954C8.606 31.954 11 29.57 11 26.63v-5.323H5.654c-2.952 0-5.346 2.384-5.346 5.323s2.394 5.324 5.346 5.324z"/><path fill="var(--color2, #a259ff)" d="M.308 15.977c0-2.939 2.394-5.323 5.346-5.323H11v10.654H5.654c-2.952-.007-5.346-2.391-5.346-5.33z"/><path fill="var(--color3, #f24e1e)" d="M.308 5.324C.308 2.385 2.702 0 5.654 0H11v10.654H5.654c-2.952 0-5.346-2.391-5.346-5.33z"/><path fill="var(--color4, #ff7262)" d="M11.007 0h5.346c2.952 0 5.346 2.384 5.346 5.324s-2.394 5.324-5.346 5.324h-5.346V.001z"/><path fill="var(--color5, #1abcfe)" d="M21.698 15.977c0 2.939-2.394 5.324-5.346 5.324s-5.346-2.384-5.346-5.324c0-2.939 2.394-5.324 5.346-5.324s5.346 2.384 5.346 5.323z"/></symbol><symbol id="icon-adobe-after-effects" viewBox="0 0 33 32"><path fill="var(--color6, #000)" d="M1.386 1.352h30.022v28.946H1.386V1.352z"/><path fill="var(--color7, #d8a1ff)" d="M1.386 1.352h30.022v28.946H1.386V1.352zM.022 31.65h32.757V0H.022v31.65zm23.174-16.394c.695 0 .945 0 1.01-.026 0-.098.026-.162.026-.227 0-.728-.354-2.08-1.771-2.08-1.312 0-1.869 1.138-2.007 2.34h2.742v-.006zm-2.768 1.853c.026 1.827.899 3.055 2.978 3.055.807 0 1.502-.11 2.224-.416.098-.039.164-.026.164.098v1.69c0 .137-.039.201-.138.273-.722.351-1.627.514-2.742.514-3.601 0-4.952-2.639-4.952-5.571 0-3.192 1.666-5.805 4.598-5.805 2.978 0 4.014 2.477 4.014 4.492 0 .65-.039 1.177-.111 1.437-.026.11-.066.149-.177.175-.276.039-1.076.098-2.276.098h-3.575v-.039h-.007zm-7.32-1.378c-.38-1.502-1.312-4.771-1.653-6.357h-.026c-.289 1.58-1.036 4.258-1.594 6.357h3.273zm-3.831 2.19l-1.076 4.043c-.026.11-.066.149-.203.149H5.984c-.138 0-.164-.039-.138-.201l3.877-13.43c.066-.241.111-.436.138-1.112 0-.098.039-.136.111-.136h2.866c.098 0 .138.026.164.136l4.336 14.567c.026.11 0 .175-.112.175h-2.25c-.111 0-.177-.039-.203-.137l-1.122-4.056H9.276z"/></symbol><symbol id="icon-adobe-photoshop" viewBox="0 0 33 32"><path fill="var(--color6, #000)" d="M1.5 1.366h30.328v29.217H1.5V1.366z"/><path fill="var(--color8, #31c5f0)" d="M1.5 1.366h30.328v29.217H1.5V1.366zM.121 31.948H33.2V0H.121v31.948zm22.307-18.836c-1.087 0-1.458.545-1.458.998 0 .492.245.834 1.71 1.582 2.161 1.037 2.837 2.035 2.837 3.493 0 2.186-1.684 3.362-3.958 3.362-1.2 0-2.234-.243-2.824-.584-.099-.039-.113-.112-.113-.217V19.73c0-.138.066-.177.166-.112a5.176 5.176 0 002.771.808c1.087 0 1.545-.453 1.545-1.064 0-.492-.318-.926-1.71-1.641-1.956-.926-2.771-1.865-2.771-3.44 0-1.76 1.392-3.224 3.805-3.224 1.187 0 2.015.177 2.466.381.113.066.139.177.139.276v1.871c0 .112-.066.177-.206.138-.61-.381-1.505-.611-2.4-.611zm-11.853 1.621c.318.026.563.026 1.114.026 1.611 0 3.129-.558 3.129-2.731 0-1.733-1.087-2.607-2.923-2.607-.55 0-1.074.026-1.326.039l.007 5.272zM8.116 7.485c0-.098.192-.164.305-.164a87.087 87.087 0 013.553-.066c3.818 0 5.31 2.075 5.31 4.721 0 3.467-2.539 4.957-5.655 4.957-.524 0-.703-.026-1.074-.026v5.239c0 .112-.04.164-.166.164H8.281c-.113 0-.166-.039-.166-.164V7.485z"/></symbol><symbol id="icon-linkedin" viewBox="0 0 33 32"><path stroke-width=".39" d="M27.367.655H5.343C2.827.655.78 2.663.78 5.132v21.61c0 2.469 2.047 4.477 4.563 4.477h22.024c2.516 0 4.563-2.008 4.563-4.477V5.132c0-2.469-2.047-4.477-4.563-4.477zm2.738 26.087c0 1.481-1.228 2.686-2.738 2.686H5.343c-1.51 0-2.738-1.205-2.738-2.686V5.132c0-1.481 1.228-2.686 2.738-2.686h22.024c1.51 0 2.738 1.205 2.738 2.686v21.61z"/><path d="M24.92 22.809h-3.344v-.151-5.343c0-.379-.029-.754-.125-1.123-.4-1.525-2.126-1.436-2.813-.713-.345.363-.571.774-.58 1.281-.002.121-.009.242-.009.362l-.001 5.53v.157H14.71V12.612h3.336v1.368l.027.011.072-.095c.334-.457.719-.862 1.229-1.136.57-.306 1.186-.409 1.827-.391.694.02 1.353.174 1.946.541.761.471 1.224 1.16 1.496 1.987.212.644.281 1.309.282 1.982.002 1.937.001 3.874 0 5.811 0 .038-.003.076-.006.119z"/><path d="M24.92 22.809v.024h.023l.001-.023-.024-.001zm-3.343 0h-.024v.024h.024v-.024zm0-5.495zm-.125-1.123zm-2.813-.713zm-.58 1.281zm-.009.362zm-.001 5.687v.024h.024v-.024h-.024zm-3.338 0h-.024v.024h.024v-.024zm0-10.197v-.024h-.024v.024h.024zm3.336 0h.024v-.024h-.024v.024zm0 1.368h-.024v.016l.015.006.009-.022zm.027.011l-.009.022.017.007.011-.015-.019-.014zm.072-.095l.019.014-.019-.014zm1.229-1.136zm1.827-.39zm1.946.541zm1.496 1.987zm.282 1.982zm0 5.81zm-.006.096H21.516v.048H24.92v-.048zm-3.319.024h-.048.048zm0-.152v-5.343h-.048v5.343h.048zm0-5.343c0-.38-.029-.757-.126-1.129l-.046.012c.096.367.125.739.125 1.117h.048zm-.126-1.129c-.202-.773-.742-1.138-1.318-1.217-.574-.079-1.185.126-1.534.493l.035.033c.337-.355.933-.556 1.493-.479.559.077 1.082.429 1.279 1.182l.046-.012zm-2.853-.724c-.348.366-.577.782-.587 1.297l.048.001c.009-.5.231-.905.574-1.265l-.035-.033zm-.587 1.297c-.002.119-.009.242-.009.363h.048c0-.121.007-.239.009-.362l-.048-.001zm-.009.363v5.53h.048v-5.53h-.048zm-.001 5.53h.048-.048zm.024.133H14.71v.048H18.049v-.048zm-3.314.024v-.02-.02-.02-.02-.02-.02-.02-.02-.02-.02-.02-.02-.02-.02-.02-.02-.02-.02-.02-.02-.02-.02-.02-.02-.02-.02-.02-.02-.02-.02-.02-.02-.02-.02-.02-.02-.02-.02-.02-.02-.02-.02-.02-.02-.02-.02-.02-.02-.02-.02-.02-.02-.02-.02-.02-.02-.02-.02-.02-.02-.02-.02-.02-.02-.02-.02-.02-.02-.02-.02-.02-.02-.02-.02-.02-.02-.02-.02-.02-.02-.02-.02-.02-.02-.02-.02-.02-.02-.02-.02-.02-.02-.02-.02-.02-.02-.02-.02-.02-.02-.02-.02-.02-.02-.02-.02-.02-.02-.02-.02-.02-.02-.02-.02-.02-.02-.02-.02-.02-.02-.02-.02-.02-.02-.02-.02-.02-.02-.02-.02-.02-.02-.02-.02-.02-.02-.02-.02-.02-.02-.02-.02-.02-.02-.02-.02-.02-.02-.02-.02-.02-.02-.02-.02-.02-.02-.02-.02-.02-.02-.02-.02-.02-.02-.02-.02-.02-.02-.02-.02-.02-.02-.02-.02-.02-.02-.02-.02-.02-.02-.02-.02-.02-.02-.02-.02-.02-.02-.02-.02-.02-.02-.02-.02-.02-.02-.02-.02-.02-.02-.02-.02-.02-.02-.02-.02-.02-.02-.02-.02-.02-.02-.02-.02-.02-.02-.02-.02-.02-.02-.02-.02-.02-.02-.02-.02-.02-.02-.02-.02-.02-.02-.02-.02-.02-.02-.02-.02-.02-.02-.02-.02-.02-.02-.02-.02-.02-.02-.02-.02-.02-.02-.02-.02-.02-.02-.02-.02-.02-.02-.02-.02-.02-.02-.02-.02-.02-.02-.02-.02-.02-.02-.02-.02-.02-.02-.02-.02-.02-.02-.02-.02-.02-.02-.02-.02-.02-.02-.02-.02-.02-.02-.02-.02-.02-.02-.02-.02-.02-.02-.02-.02-.02-.02-.02-.02-.02-.02-.02-.02-.02-.02-.02-.02-.02-.02-.02-.02-.02-.02-.02-.02-.02-.02-.02-.02-.02-.02-.02-.02-.02-.02-.02-.02-.02-.02-.02-.02-.02-.02-.02-.02-.02-.02-.02-.02-.02-.02-.02-.02-.02-.02-.02-.02-.02-.02-.02-.02-.02-.02-.02-.02-.02-.02-.02-.02-.02-.02-.02-.02-.02-.02-.02-.02-.02-.02-.02-.02-.02-.02-.02-.02-.02-.02-.02-.02-.02-.02-.02-.02-.02-.02-.02-.02-.02-.02-.02-.02-.02-.02-.02-.02-.02-.02-.02-.02-.02-.02-.02-.02-.02-.02-.02-.02-.02-.02-.02-.02-.02-.02-.02-.02-.02-.02-.02-.02-.02-.02-.02-.02-.02-.02-.02-.02-.02-.02-.02-.02-.02-.02-.02-.02-.02-.02-.02-.02-.02-.02-.02-.02-.02-.02-.02-.02-.02-.02-.02-.02-.02-.02-.02-.02-.02-.02-.02-.02-.02-.02-.02-.02-.02-.02-.02-.02-.02-.02-.02-.02-.02-.02-.02-.02-.02-.02-.02-.02-.02-.02-.02-.02-.02-.02-.02-.02-.02-.02-.02-.02-.02-.02-.02-.02-.02-.02-.02-.02-.02-.02-.02-.02-.02-.02h-.048V22.808h.048zm-.024-10.173H18.029v-.048H14.711v.048zm3.313-.024V14.147h.048v-.003-.003-.003-.003-.003-.003-.003-.003-.003-.003-.003-.003-.003-.003-.003-.003-.003-.003-.003-.003-.003-.003-.003-.003-.003-.003-.003-.003-.003-.003-.003-.003-.003-.003-.003-.003-.003-.003-.003-.003-.003-.003-.003-.003-.003-.003-.003-.003V14v-.003-.003-.003-.003-.003-.003-.003-.003-.003-.003-.003-.003-.003-.003-.003-.003-.003-.003-.003-.003-.003-.003-.003-.003-.003-.003-.003-.003-.003-.003-.003-.003-.003-.003-.003-.003-.003-.003-.003-.003-.003-.003-.003-.003-.003-.003-.003-.003-.003-.003-.003-.003-.003-.003-.003-.003-.003-.003-.003-.003-.003-.003-.003-.003-.003-.003-.003-.003-.003-.003-.003-.003-.003-.003-.003-.003-.003-.003-.003-.003-.003-.003-.003-.003-.003-.003-.003-.003-.003-.003-.003-.003-.003-.003-.003-.003-.003-.003-.003-.003-.003-.003-.003-.003-.003-.003-.003-.003-.003-.003-.003-.003-.003-.003-.003-.003-.003-.003-.003-.003-.003-.003-.003-.003-.003-.003-.003-.003-.003-.003-.003-.003-.003-.003-.003-.003-.003-.003-.003-.003-.003-.003-.003-.003-.003-.003-.003-.003-.003-.003-.003-.003-.003-.003-.003-.003-.003-.003-.003-.003-.003-.003-.003-.003-.003-.003-.003-.003-.003-.003-.003-.003-.003-.003-.003-.003-.003-.003-.003-.003-.003-.003-.003-.003-.003-.003-.003-.003-.003-.003-.003-.003-.003-.003-.003-.003-.003-.003-.003-.003-.003-.003-.003-.003-.003-.003-.003-.003-.003-.003-.003-.003-.003-.003-.003-.003-.003-.003-.003-.003-.003-.003-.003-.003-.003-.003-.003-.003-.003-.003-.003-.003-.003-.003-.003-.003-.003-.003-.003-.003-.003-.003-.003-.003-.003-.003-.003-.003-.003-.003-.003-.003-.003-.003-.003-.003-.003-.003-.003-.003-.003-.003-.003-.003-.003-.003-.003-.003-.003-.003-.003-.003-.003-.003-.003-.003-.003-.003-.003-.003-.003-.003-.003-.003-.003-.003-.003-.003-.003-.003-.003-.003-.003-.003-.003-.003-.003-.003-.003-.003-.003-.003-.003-.003-.003-.003-.003-.003-.003-.003-.003-.003-.003-.003-.003-.003-.003-.003-.003-.003-.003-.003-.003-.003-.003-.003-.003-.003-.003-.003-.003-.003-.003-.003-.003-.003-.003-.003-.003-.003-.003-.003-.003-.003-.003-.003-.003-.003-.003-.003-.003-.003-.003-.003-.003-.003-.003-.003-.003-.003-.003-.003-.003-.003-.003-.003-.003-.003-.003-.003-.003-.003-.003-.003-.003-.003-.003-.003-.003-.003-.003-.003-.003-.003-.003-.003-.003-.003-.003-.003-.003-.003-.003-.003-.003-.003-.003-.003-.003-.003-.003-.003-.003-.003-.003-.003-.003-.003-.003-.003-.003-.003-.003-.003-.003-.003-.003-.003-.003-.003-.003-.003-.003-.003-.003-.003-.003-.003-.003-.003-.003-.003-.003-.003-.003-.003-.003-.003-.003-.003-.003-.003-.003-.003-.003-.003-.003-.003-.003-.003-.003-.003-.003-.003-.003-.003-.003-.003-.003-.003-.003-.003-.003h-.048zm.014 1.39l.027.011.018-.044-.026-.011-.019.044zm.055.004l.072-.095-.038-.028-.072.095.038.029zm.072-.096c.333-.456.715-.857 1.221-1.129l-.023-.042c-.515.276-.902.684-1.237 1.143l.039.028zm1.221-1.129c.566-.304 1.177-.406 1.815-.388l.001-.048c-.644-.018-1.264.085-1.839.393l.023.042zm1.815-.387c.691.02 1.345.173 1.934.537l.025-.041c-.598-.37-1.261-.525-1.958-.545l-.001.048zm1.935.537c.755.467 1.216 1.152 1.486 1.974l.045-.015c-.273-.831-.739-1.525-1.506-2l-.025.041zm1.485 1.974c.211.641.28 1.303.28 1.975h.048c-.001-.675-.07-1.342-.283-1.989l-.045.015zm.281 1.975c.002 1.937.001 3.874 0 5.811h.048c0-1.937.001-3.874-.001-5.811h-.048zm0 5.81c0 .037-.003.073-.006.118l.048.003c.002-.042.006-.082.006-.121h-.048zM12.661 22.803H9.365V12.62h3.296v10.183zM11.155 7.545c.52-.001.963.181 1.276.491s.498.749.5 1.266c.002.511-.184.946-.502 1.254s-.769.489-1.299.489c-1.033.001-1.77-.726-1.771-1.747s.745-1.751 1.796-1.752z"/></symbol><symbol id="icon-instagram" viewBox="0 0 32 32"><path stroke-width=".8" d="M9.723.408h.4V.4h12.64c4.746 0 8.62 3.9 8.62 8.681v13.118c0 4.781-3.874 8.681-8.612 8.681H9.723c-4.747 0-8.627-3.894-8.627-8.666V9.088c0-4.78 3.881-8.681 8.627-8.681zM2.687 9.095v13.126c0 3.91 3.129 7.06 7.036 7.06h13.048c3.893 0 7.021-3.151 7.021-7.076V9.087c0-3.925-3.128-7.076-7.028-7.076H9.724c-3.901 0-7.028 3.151-7.036 7.082zm22.33-3.074c0-.45.354-.803.796-.803s.796.352.796.803c0 .45-.354.803-.796.803s-.796-.352-.796-.803zm-16.74 9.623c0-4.412 3.59-8.02 7.97-8.02s7.97 3.607 7.97 8.02c0 4.412-3.589 8.02-7.97 8.02s-7.97-3.607-7.97-8.02zm14.348 0c0-3.556-2.837-6.414-6.378-6.414s-6.378 2.858-6.378 6.414c0 3.556 2.837 6.414 6.378 6.414s6.378-2.858 6.378-6.414z"/></symbol><symbol id="icon-behance" viewBox="0 0 33 32"><path stroke-width=".4" d="M27.622.17H5.079C2.504.17.409 2.226.409 4.752v22.117c0 2.527 2.095 4.582 4.67 4.582h22.543c2.575 0 4.671-2.056 4.671-4.582V4.752c0-2.527-2.095-4.582-4.671-4.582zm2.802 26.699c0 1.516-1.257 2.749-2.802 2.749H5.079c-1.545 0-2.802-1.233-2.802-2.749V4.752c0-1.516 1.257-2.749 2.802-2.749h22.543c1.545 0 2.802 1.233 2.802 2.749v22.117z"/><path stroke-width=".4" d="M15.416 13.061c0-2.021-1.676-3.666-3.736-3.666H6.075v12.83h5.605c2.06 0 3.736-1.644 3.736-3.666a3.628 3.628 0 00-1.269-2.749 3.628 3.628 0 001.269-2.749zm-1.868 5.499c0 1.011-.838 1.833-1.868 1.833H7.944v-3.666h3.736c1.03 0 1.868.822 1.868 1.833zm-5.604-3.666v-3.666h3.736c1.03 0 1.868.822 1.868 1.833s-.838 1.833-1.868 1.833H7.944zM21.955 13.061c-2.575 0-4.67 2.056-4.67 4.582s2.095 4.582 4.67 4.582A4.706 4.706 0 0026 19.935l-1.617-.918a2.825 2.825 0 01-2.428 1.375 2.803 2.803 0 01-2.642-1.833h7.313v-.916c0-2.527-2.095-4.582-4.67-4.582zm-2.642 3.666c.386-1.067 1.424-1.833 2.642-1.833s2.257.766 2.642 1.833h-5.284zM18.219 9.395h7.473v1.833h-7.473V9.395z"/></symbol><symbol id="icon-dribbble" viewBox="0 0 31 32"><path stroke-width=".8" d="M24.195 5.575l.251-.31-.31-.252a13.384 13.384 0 00-8.48-3.007c-1.128 0-2.221.155-3.256.41l-.59.145.366.485c1.105 1.463 2.693 3.672 4.594 7.132l.165.301.322-.118c3.598-1.315 5.756-3.326 6.937-4.786zM10.443 3.402l-.195-.253-.29.135a13.569 13.569 0 00-7.354 8.7l-.136.491.509.016c1.968.061 6.672-.03 11.884-1.404l.501-.132-.255-.451c-2.022-3.585-3.723-5.88-4.665-7.101zm15.464 3.331l-.308-.36-.303.364c-1.316 1.58-3.601 3.633-7.219 5.026l-.411.158.197.394a56.316 56.316 0 012.226 5.025l.115.3.318-.048a31.032 31.032 0 016.866-.252c.445.036.731.077 1.065.124l.219.031.408.057.044-.41a13.656 13.656 0 00-3.217-10.409zM16.252 12.7l-.148-.293-.316.088C9.656 14.209 4.255 14.157 2.573 14.09l-.385-.015-.032.41c-.029.373-.059.756-.059 1.163a13.62 13.62 0 004.642 10.256l.296.26.265-.292a39.159 39.159 0 012.826-2.821l.002-.001c2.183-1.979 4.991-4.074 8.051-4.988l.418-.125-.161-.406a57.74 57.74 0 00-2.182-4.831zm7.542 6.172h-.004c-.804.038-1.659.114-2.529.228l-.479.063.152.459a45.39 45.39 0 011.734 7.029l.1.624.521-.357a13.567 13.567 0 005.344-7.345l.135-.458-.474-.053a29.332 29.332 0 00-4.498-.19zm-4.494.931l-.124-.359-.365.104c-2.688.769-5.499 2.764-7.63 4.689a38.342 38.342 0 00-2.529 2.514l-.338.363.427.253a13.48 13.48 0 006.907 1.906c1.902 0 3.696-.395 5.335-1.092l.281-.12-.042-.303a42.033 42.033 0 00-1.924-7.956zM.513 15.64C.513 7.241 7.316.4 15.656.4S30.8 7.242 30.8 15.64c0 8.399-6.803 15.24-15.144 15.24S.513 24.038.513 15.64z"/></symbol><symbol id="icon-adobe-illustrator" viewBox="0 0 33 32"><path fill="var(--color6, #000)" d="M1.614 1.352h30.022v28.946H1.614V1.352z"/><path fill="var(--color10, #ff7f18)" d="M1.614 1.352h30.022v28.946H1.614V1.352zM.25 31.65h32.757V0H.25v31.65zm21.456-20.366c0-.111.039-.162.164-.162h2.145c.111 0 .164.039.164.162v10.673c0 .111-.026.163-.164.163h-2.119c-.138 0-.177-.065-.177-.175V11.284h-.013zm-.151-3.074c0-.865.617-1.378 1.391-1.378.833 0 1.391.553 1.391 1.378 0 .891-.584 1.378-1.417 1.378-.787.007-1.364-.481-1.364-1.378zm-6.14 7.521c-.38-1.502-1.286-4.771-1.627-6.357h-.026c-.289 1.58-1.01 4.258-1.581 6.357h3.234zm-3.791 2.19l-1.076 4.056c-.026.11-.066.137-.203.137H8.338c-.138 0-.164-.039-.138-.201L12.077 8.47c.066-.241.112-.462.138-1.125 0-.098.039-.137.112-.137h2.866c.098 0 .138.026.164.137l4.342 14.593c.026.11 0 .175-.112.175h-2.263c-.112 0-.177-.026-.203-.123l-1.122-4.069h-4.375z"/><symbol id="icon-circle-up" viewBox="0 0 32 32">
<path d="M0 16c0 8.837 7.163 16 16 16s16-7.163 16-16-7.163-16-16-16-16 7.163-16 16zM29 16c0 7.18-5.82 13-13 13s-13-5.82-13-13 5.82-13 13-13 13 5.82 13 13z"></path>
<path d="M22.086 20.914l2.829-2.829-8.914-8.914-8.914 8.914 2.828 2.828 6.086-6.086z"></path>
</symbol></symbol></defs></svg>