<svg width="22" height="20" viewBox="0 0 22 20" fill="none" xmlns="http://www.w3.org/2000/svg">
<path d="M10.0515 0.993969C10.3562 0.0839989 11.6433 0.0840009 11.948 0.993971L13.7602 6.40603C13.8968 6.81371 14.2786 7.0885 14.7085 7.0885H20.5075C21.4834 7.0885 21.8813 8.34344 21.0837 8.90581L16.4445 12.1764C16.0834 12.4309 15.9322 12.8923 16.0725 13.3112L17.8566 18.6394C18.1633 19.5554 17.1217 20.3308 16.3321 19.7742L11.576 16.4211C11.2304 16.1775 10.7691 16.1775 10.4236 16.4211L5.66739 19.7742C4.87785 20.3308 3.83621 19.5554 4.14294 18.6394L5.92708 13.3112C6.06736 12.8923 5.91611 12.4309 5.55503 12.1764L0.915884 8.90581C0.118191 8.34344 0.516083 7.0885 1.49208 7.0885H7.29103C7.72096 7.0885 8.10277 6.8137 8.23929 6.40602L10.0515 0.993969Z" fill="#070707"/>
</svg>
