<svg width="170" height="26" fill="none" xmlns="http://www.w3.org/2000/svg"><path d="M12.365 2.994c.305-.91 1.592-.91 1.896 0l1.813 5.412a1 1 0 00.948.682h5.799c.976 0 1.374 1.255.576 1.818l-4.639 3.27a1 1 0 00-.372 1.135l1.784 5.328c.307.916-.735 1.692-1.524 1.135l-4.757-3.353a1 1 0 00-1.152 0l-4.756 3.353c-.79.557-1.831-.219-1.525-1.135l1.785-5.328a1 1 0 00-.372-1.135l-4.64-3.27c-.797-.563-.4-1.818.577-1.818h5.799a1 1 0 00.948-.682l1.812-5.412zM48.209 2.994c.304-.91 1.591-.91 1.896 0l1.813 5.412a1 1 0 00.948.682h5.799c.976 0 1.374 1.255.576 1.818l-4.64 3.27a1 1 0 00-.371 1.135l1.784 5.328c.307.916-.735 1.692-1.525 1.135l-4.756-3.353a1 1 0 00-1.152 0l-4.756 3.353c-.79.557-1.832-.219-1.525-1.135l1.784-5.328a1 1 0 00-.372-1.135l-4.639-3.27c-.798-.563-.4-1.818.576-1.818h5.8a1 1 0 00.948-.682l1.812-5.412zM84.052 2.994c.304-.91 1.591-.91 1.896 0l1.812 5.412a1 1 0 00.948.682h5.8c.975 0 1.373 1.255.576 1.818l-4.64 3.27a1 1 0 00-.371 1.135l1.784 5.328c.306.916-.735 1.692-1.525 1.135l-4.756-3.353a1 1 0 00-1.152 0l-4.757 3.353c-.79.557-1.83-.219-1.524-1.135l1.784-5.328a1 1 0 00-.372-1.135l-4.64-3.27c-.797-.563-.399-1.818.577-1.818h5.799a1 1 0 00.948-.682l1.813-5.412zM119.895 2.994c.304-.91 1.592-.91 1.896 0l1.813 5.412a1 1 0 00.948.682h5.799c.976 0 1.374 1.255.576 1.818l-4.639 3.27a.999.999 0 00-.372 1.135l1.784 5.328c.307.916-.735 1.692-1.525 1.135l-4.756-3.353a1 1 0 00-1.152 0l-4.756 3.353c-.79.557-1.832-.219-1.525-1.135l1.784-5.328a.999.999 0 00-.372-1.135l-4.639-3.27c-.798-.563-.4-1.818.576-1.818h5.799c.43 0 .812-.274.949-.682l1.812-5.412z" fill="#070707"/><path d="M155.739 2.994c.304-.91 1.591-.91 1.896 0l1.812 5.412c.137.408.519.682.949.682h5.798c.976 0 1.374 1.255.577 1.818l-4.639 3.27a1 1 0 00-.373 1.135l1.785 5.328c.306.916-.735 1.692-1.525 1.135l-4.756-3.353a1 1 0 00-1.152 0l-4.757 3.353c-.789.557-1.831-.219-1.524-1.135l1.784-5.328a1 1 0 00-.372-1.135l-4.639-3.27c-.798-.563-.4-1.818.576-1.818h5.799a1 1 0 00.948-.682l1.813-5.412z" fill="#E5E5E5"/></svg>