<svg width="170" height="26" fill="none" xmlns="http://www.w3.org/2000/svg"><path d="M12.365 2.992c.305-.91 1.592-.91 1.896 0l1.813 5.413a1 1 0 00.948.683h5.8c.975 0 1.373 1.254.576 1.817l-4.64 3.271a1 1 0 00-.372 1.135l1.784 5.329c.307.916-.735 1.691-1.524 1.135l-4.757-3.354a1 1 0 00-1.152 0l-4.756 3.354c-.79.556-1.831-.219-1.525-1.135l1.785-5.33a1 1 0 00-.372-1.134l-4.64-3.271c-.798-.563-.4-1.817.576-1.817h5.8a1 1 0 00.948-.683l1.812-5.413zM48.209 2.992c.304-.91 1.592-.91 1.896 0l1.813 5.413a1 1 0 00.948.683h5.799c.976 0 1.374 1.254.576 1.817l-4.64 3.271a1 1 0 00-.371 1.135l1.784 5.329c.307.916-.735 1.691-1.525 1.135l-4.756-3.354a1 1 0 00-1.152 0l-4.756 3.354c-.79.556-1.832-.219-1.525-1.135l1.784-5.33a1 1 0 00-.372-1.134l-4.64-3.271c-.797-.563-.399-1.817.577-1.817h5.8a1 1 0 00.948-.683l1.812-5.413zM84.052 2.992c.305-.91 1.592-.91 1.897 0l1.812 5.413a1 1 0 00.949.683h5.799c.976 0 1.374 1.254.576 1.817l-4.64 3.271a1 1 0 00-.372 1.135l1.785 5.329c.306.916-.735 1.691-1.525 1.135l-4.756-3.354a1 1 0 00-1.153 0l-4.756 3.354c-.79.556-1.83-.219-1.524-1.135l1.784-5.33a1 1 0 00-.372-1.134l-4.64-3.271c-.797-.563-.4-1.817.577-1.817h5.799a1 1 0 00.948-.683l1.813-5.413z" fill="#070707"/><path d="M119.895 2.992c.305-.91 1.592-.91 1.897 0l1.812 5.413a1 1 0 00.948.683h5.8c.976 0 1.373 1.254.576 1.817l-4.64 3.271a1 1 0 00-.372 1.135l1.784 5.329c.307.916-.735 1.691-1.524 1.135l-4.756-3.354a1 1 0 00-1.153 0l-4.756 3.354c-.789.556-1.831-.219-1.524-1.135l1.784-5.33a1 1 0 00-.372-1.134l-4.64-3.271c-.797-.563-.399-1.817.577-1.817h5.799a1 1 0 00.948-.683l1.812-5.413zM155.738 2.992c.305-.91 1.592-.91 1.897 0l1.812 5.413a1 1 0 00.948.683h5.799c.976 0 1.374 1.254.577 1.817l-4.64 3.271a1 1 0 00-.372 1.135l1.784 5.329c.307.916-.735 1.691-1.524 1.135l-4.756-3.354a1 1 0 00-1.153 0l-4.756 3.354c-.79.556-1.831-.219-1.525-1.135l1.785-5.33a1 1 0 00-.372-1.134l-4.64-3.271c-.798-.563-.4-1.817.576-1.817h5.8c.429 0 .811-.275.948-.683l1.812-5.413z" fill="#E5E5E5"/></svg>