<svg width="170" height="26" fill="none" xmlns="http://www.w3.org/2000/svg"><path d="M12.364 2.883c.304-.912 1.594-.912 1.898 0l1.812 5.44a1 1 0 00.95.683h5.81c.974 0 1.373 1.252.578 1.816l-4.657 3.3a1 1 0 00-.371 1.132l1.789 5.37c.306.916-.738 1.69-1.527 1.131l-4.755-3.368a1 1 0 00-1.156 0L7.98 21.755c-.788.56-1.832-.215-1.527-1.132l1.79-5.37a1 1 0 00-.371-1.131l-4.657-3.3c-.796-.563-.397-1.816.578-1.816h5.81a1 1 0 00.95-.684l1.811-5.44zM48.208 2.883c.304-.912 1.594-.912 1.898 0l1.812 5.44a1 1 0 00.949.683h5.81c.975 0 1.374 1.252.579 1.816l-4.658 3.3a1 1 0 00-.37 1.132l1.789 5.37c.305.916-.739 1.69-1.527 1.131l-4.755-3.368a1 1 0 00-1.156 0l-4.755 3.368c-.788.56-1.832-.215-1.527-1.132l1.79-5.37a1 1 0 00-.371-1.131l-4.658-3.3c-.795-.563-.396-1.816.578-1.816h5.811a1 1 0 00.949-.684l1.812-5.44zM84.051 2.883c.304-.912 1.594-.912 1.897 0l1.813 5.44a1 1 0 00.949.683h5.81c.975 0 1.374 1.252.578 1.816l-4.657 3.3a1 1 0 00-.37 1.132l1.788 5.37c.306.916-.738 1.69-1.526 1.131l-4.755-3.368a1 1 0 00-1.156 0l-4.755 3.368c-.789.56-1.832-.215-1.527-1.132l1.79-5.37a1 1 0 00-.372-1.131l-4.657-3.3c-.795-.563-.397-1.816.578-1.816h5.81a1 1 0 00.95-.684l1.812-5.44zM119.894 2.883c.304-.912 1.594-.912 1.898 0l1.812 5.44a1 1 0 00.949.683h5.81c.975 0 1.374 1.252.579 1.816l-4.658 3.3a1 1 0 00-.37 1.132l1.789 5.37c.305.916-.738 1.69-1.527 1.131l-4.755-3.368a1 1 0 00-1.156 0l-4.755 3.368c-.788.56-1.832-.215-1.527-1.132l1.789-5.37a1 1 0 00-.37-1.131l-4.658-3.3c-.795-.563-.396-1.816.579-1.816h5.81a1 1 0 00.949-.684l1.812-5.44zM155.738 2.883c.304-.912 1.594-.912 1.897 0l1.813 5.44a1 1 0 00.949.683h5.81c.975 0 1.374 1.252.578 1.816l-4.657 3.3c-.359.254-.51.714-.371 1.132l1.79 5.37c.305.916-.739 1.69-1.527 1.131l-4.755-3.368a1 1 0 00-1.156 0l-4.755 3.368c-.789.56-1.832-.215-1.527-1.132l1.789-5.37a1 1 0 00-.371-1.131l-4.657-3.3c-.795-.563-.396-1.816.578-1.816h5.811a1 1 0 00.949-.684l1.812-5.44z" fill="#070707"/></svg>